<?xml version="1.0" encoding="UTF-8" standalone="no"?><!DOCTYPE svg PUBLIC "-//W3C//DTD SVG 1.1//EN" "http://www.w3.org/Graphics/SVG/1.1/DTD/svg11.dtd"><!-- Generated by graphviz version 2.40.1 (20161225.0304)
 --><!-- Title: %0 Pages: 1 --><svg xmlns="http://www.w3.org/2000/svg" xmlns:xlink="http://www.w3.org/1999/xlink" width="1091pt" height="548pt" viewBox="0.00 0.00 1091.02 548.00">
<g id="graph0" class="graph" transform="scale(1 1) rotate(0) translate(4 544)">
<title>%0</title>
<polygon fill="#ffffff" stroke="transparent" points="-4,4 -4,-544 1087.02,-544 1087.02,4 -4,4"/>
<!-- [root] aws_apigatewayv2_api.hello_world (expand) -->
<g id="node1" class="node">
<title>[root] aws_apigatewayv2_api.hello_world (expand)</title>
<polygon fill="none" stroke="#000000" points="841.4775,-252 623.9357,-252 623.9357,-216 841.4775,-216 841.4775,-252"/>
<text text-anchor="middle" x="732.7066" y="-229.8" font-family="Times,serif" font-size="14.00" fill="#000000">aws_apigatewayv2_api.hello_world</text>
</g>
<!-- [root] provider[&quot;registry.terraform.io/hashicorp/aws&quot;] -->
<g id="node9" class="node">
<title>[root] provider["registry.terraform.io/hashicorp/aws"]</title>
<polygon fill="none" stroke="#000000" points="572.7066,-108 297.7161,-90 572.7066,-72 847.6971,-90 572.7066,-108"/>
<text text-anchor="middle" x="572.7066" y="-85.8" font-family="Times,serif" font-size="14.00" fill="#000000">provider["registry.terraform.io/hashicorp/aws"]</text>
</g>
<!-- [root] aws_apigatewayv2_api.hello_world (expand)&#45;&gt;[root] provider[&quot;registry.terraform.io/hashicorp/aws&quot;] -->
<g id="edge1" class="edge">
<title>[root] aws_apigatewayv2_api.hello_world (expand)-&gt;[root] provider["registry.terraform.io/hashicorp/aws"]</title>
<path fill="none" stroke="#000000" d="M733.6941,-215.9266C733.7965,-196.0195 730.9168,-164.163 713.7066,-144 698.7342,-126.4587 677.3993,-114.5964 655.8436,-106.5814"/>
<polygon fill="#000000" stroke="#000000" points="656.8742,-103.2344 646.2794,-103.27 654.5839,-109.8491 656.8742,-103.2344"/>
</g>
<!-- [root] var.AWS_ENVIRONMENT -->
<g id="node10" class="node">
<title>[root] var.AWS_ENVIRONMENT</title>
<polygon fill="none" stroke="#000000" points="698.8182,-180 526.595,-180 526.595,-144 704.8182,-144 704.8182,-174 698.8182,-180"/>
<polyline fill="none" stroke="#000000" points="698.8182,-180 698.8182,-174 "/>
<polyline fill="none" stroke="#000000" points="704.8182,-174 698.8182,-174 "/>
<text text-anchor="middle" x="615.7066" y="-157.8" font-family="Times,serif" font-size="14.00" fill="#000000">var.AWS_ENVIRONMENT</text>
</g>
<!-- [root] aws_apigatewayv2_api.hello_world (expand)&#45;&gt;[root] var.AWS_ENVIRONMENT -->
<g id="edge2" class="edge">
<title>[root] aws_apigatewayv2_api.hello_world (expand)-&gt;[root] var.AWS_ENVIRONMENT</title>
<path fill="none" stroke="#000000" d="M703.1826,-215.8314C688.2175,-206.6221 669.868,-195.3301 653.8463,-185.4706"/>
<polygon fill="#000000" stroke="#000000" points="655.5721,-182.423 645.2212,-180.1628 651.9034,-188.3847 655.5721,-182.423"/>
</g>
<!-- [root] aws_apigatewayv2_integration.hello_world (expand) -->
<g id="node2" class="node">
<title>[root] aws_apigatewayv2_integration.hello_world (expand)</title>
<polygon fill="none" stroke="#000000" points="606.5246,-324 344.8886,-324 344.8886,-288 606.5246,-288 606.5246,-324"/>
<text text-anchor="middle" x="475.7066" y="-301.8" font-family="Times,serif" font-size="14.00" fill="#000000">aws_apigatewayv2_integration.hello_world</text>
</g>
<!-- [root] aws_apigatewayv2_integration.hello_world (expand)&#45;&gt;[root] aws_apigatewayv2_api.hello_world (expand) -->
<g id="edge3" class="edge">
<title>[root] aws_apigatewayv2_integration.hello_world (expand)-&gt;[root] aws_apigatewayv2_api.hello_world (expand)</title>
<path fill="none" stroke="#000000" d="M540.2268,-287.9243C576.124,-277.8675 620.9646,-265.3052 658.3327,-254.8363"/>
<polygon fill="#000000" stroke="#000000" points="659.4748,-258.1511 668.1598,-252.0831 657.5864,-251.4107 659.4748,-258.1511"/>
</g>
<!-- [root] aws_lambda_function.hello_world (expand) -->
<g id="node7" class="node">
<title>[root] aws_lambda_function.hello_world (expand)</title>
<polygon fill="none" stroke="#000000" points="580.9929,-252 370.4203,-252 370.4203,-216 580.9929,-216 580.9929,-252"/>
<text text-anchor="middle" x="475.7066" y="-229.8" font-family="Times,serif" font-size="14.00" fill="#000000">aws_lambda_function.hello_world</text>
</g>
<!-- [root] aws_apigatewayv2_integration.hello_world (expand)&#45;&gt;[root] aws_lambda_function.hello_world (expand) -->
<g id="edge4" class="edge">
<title>[root] aws_apigatewayv2_integration.hello_world (expand)-&gt;[root] aws_lambda_function.hello_world (expand)</title>
<path fill="none" stroke="#000000" d="M475.7066,-287.8314C475.7066,-280.131 475.7066,-270.9743 475.7066,-262.4166"/>
<polygon fill="#000000" stroke="#000000" points="479.2067,-262.4132 475.7066,-252.4133 472.2067,-262.4133 479.2067,-262.4132"/>
</g>
<!-- [root] aws_apigatewayv2_route.hello_world_get_route (expand) -->
<g id="node3" class="node">
<title>[root] aws_apigatewayv2_route.hello_world_get_route (expand)</title>
<polygon fill="none" stroke="#000000" points="623.5092,-396 333.904,-396 333.904,-360 623.5092,-360 623.5092,-396"/>
<text text-anchor="middle" x="478.7066" y="-373.8" font-family="Times,serif" font-size="14.00" fill="#000000">aws_apigatewayv2_route.hello_world_get_route</text>
</g>
<!-- [root] aws_apigatewayv2_route.hello_world_get_route (expand)&#45;&gt;[root] aws_apigatewayv2_integration.hello_world (expand) -->
<g id="edge5" class="edge">
<title>[root] aws_apigatewayv2_route.hello_world_get_route (expand)-&gt;[root] aws_apigatewayv2_integration.hello_world (expand)</title>
<path fill="none" stroke="#000000" d="M477.9496,-359.8314C477.6287,-352.131 477.2472,-342.9743 476.8906,-334.4166"/>
<polygon fill="#000000" stroke="#000000" points="480.3872,-334.2589 476.4738,-324.4133 473.3933,-334.5503 480.3872,-334.2589"/>
</g>
<!-- [root] aws_apigatewayv2_stage.hello_world_api_v1 (expand) -->
<g id="node4" class="node">
<title>[root] aws_apigatewayv2_stage.hello_world_api_v1 (expand)</title>
<polygon fill="none" stroke="#000000" points="1053.7422,-396 779.671,-396 779.671,-360 1053.7422,-360 1053.7422,-396"/>
<text text-anchor="middle" x="916.7066" y="-373.8" font-family="Times,serif" font-size="14.00" fill="#000000">aws_apigatewayv2_stage.hello_world_api_v1</text>
</g>
<!-- [root] aws_apigatewayv2_stage.hello_world_api_v1 (expand)&#45;&gt;[root] aws_apigatewayv2_api.hello_world (expand) -->
<g id="edge6" class="edge">
<title>[root] aws_apigatewayv2_stage.hello_world_api_v1 (expand)-&gt;[root] aws_apigatewayv2_api.hello_world (expand)</title>
<path fill="none" stroke="#000000" d="M918.5897,-359.8078C919.6184,-339.7943 918.0353,-307.8427 900.7066,-288 889.7934,-275.5036 858.043,-263.9153 825.0405,-254.7036"/>
<polygon fill="#000000" stroke="#000000" points="825.8171,-251.2878 815.2495,-252.0465 823.9837,-258.0434 825.8171,-251.2878"/>
</g>
<!-- [root] aws_iam_role.role_for_lambda (expand) -->
<g id="node5" class="node">
<title>[root] aws_iam_role.role_for_lambda (expand)</title>
<polygon fill="none" stroke="#000000" points="508.5317,-180 316.8815,-180 316.8815,-144 508.5317,-144 508.5317,-180"/>
<text text-anchor="middle" x="412.7066" y="-157.8" font-family="Times,serif" font-size="14.00" fill="#000000">aws_iam_role.role_for_lambda</text>
</g>
<!-- [root] aws_iam_role.role_for_lambda (expand)&#45;&gt;[root] provider[&quot;registry.terraform.io/hashicorp/aws&quot;] -->
<g id="edge7" class="edge">
<title>[root] aws_iam_role.role_for_lambda (expand)-&gt;[root] provider["registry.terraform.io/hashicorp/aws"]</title>
<path fill="none" stroke="#000000" d="M453.0814,-143.8314C476.0264,-133.5061 504.7895,-120.5627 528.3609,-109.9556"/>
<polygon fill="#000000" stroke="#000000" points="530.0964,-113.0127 537.7793,-105.7173 527.2238,-106.6293 530.0964,-113.0127"/>
</g>
<!-- [root] aws_iam_role_policy_attachment.lambda_write_policy (expand) -->
<g id="node6" class="node">
<title>[root] aws_iam_role_policy_attachment.lambda_write_policy (expand)</title>
<polygon fill="none" stroke="#000000" points="327.6201,-324 -.2069,-324 -.2069,-288 327.6201,-288 327.6201,-324"/>
<text text-anchor="middle" x="163.7066" y="-301.8" font-family="Times,serif" font-size="14.00" fill="#000000">aws_iam_role_policy_attachment.lambda_write_policy</text>
</g>
<!-- [root] aws_iam_role_policy_attachment.lambda_write_policy (expand)&#45;&gt;[root] aws_iam_role.role_for_lambda (expand) -->
<g id="edge8" class="edge">
<title>[root] aws_iam_role_policy_attachment.lambda_write_policy (expand)-&gt;[root] aws_iam_role.role_for_lambda (expand)</title>
<path fill="none" stroke="#000000" d="M194.9905,-287.9081C239.9954,-261.8812 323.0252,-213.8639 372.52,-185.2404"/>
<polygon fill="#000000" stroke="#000000" points="374.4504,-188.1673 381.3548,-180.1311 370.946,-182.1076 374.4504,-188.1673"/>
</g>
<!-- [root] aws_lambda_function.hello_world (expand)&#45;&gt;[root] aws_iam_role.role_for_lambda (expand) -->
<g id="edge9" class="edge">
<title>[root] aws_lambda_function.hello_world (expand)-&gt;[root] aws_iam_role.role_for_lambda (expand)</title>
<path fill="none" stroke="#000000" d="M459.809,-215.8314C452.4788,-207.454 443.6406,-197.3531 435.6097,-188.1749"/>
<polygon fill="#000000" stroke="#000000" points="438.0373,-185.6343 428.8182,-180.4133 432.7693,-190.2438 438.0373,-185.6343"/>
</g>
<!-- [root] aws_lambda_function.hello_world (expand)&#45;&gt;[root] var.AWS_ENVIRONMENT -->
<g id="edge10" class="edge">
<title>[root] aws_lambda_function.hello_world (expand)-&gt;[root] var.AWS_ENVIRONMENT</title>
<path fill="none" stroke="#000000" d="M511.0345,-215.8314C529.3559,-206.4089 551.9168,-194.8062 571.3961,-184.7883"/>
<polygon fill="#000000" stroke="#000000" points="573.0978,-187.8489 580.39,-180.1628 569.8964,-181.6239 573.0978,-187.8489"/>
</g>
<!-- [root] aws_lambda_permission.lambda_permission (expand) -->
<g id="node8" class="node">
<title>[root] aws_lambda_permission.lambda_permission (expand)</title>
<polygon fill="none" stroke="#000000" points="891.266,-324 624.1472,-324 624.1472,-288 891.266,-288 891.266,-324"/>
<text text-anchor="middle" x="757.7066" y="-301.8" font-family="Times,serif" font-size="14.00" fill="#000000">aws_lambda_permission.lambda_permission</text>
</g>
<!-- [root] aws_lambda_permission.lambda_permission (expand)&#45;&gt;[root] aws_apigatewayv2_api.hello_world (expand) -->
<g id="edge11" class="edge">
<title>[root] aws_lambda_permission.lambda_permission (expand)-&gt;[root] aws_apigatewayv2_api.hello_world (expand)</title>
<path fill="none" stroke="#000000" d="M751.398,-287.8314C748.6949,-280.0463 745.475,-270.7729 742.4756,-262.1347"/>
<polygon fill="#000000" stroke="#000000" points="745.6866,-260.7119 739.1001,-252.4133 739.0739,-263.0081 745.6866,-260.7119"/>
</g>
<!-- [root] var.AWS_REGION -->
<g id="node11" class="node">
<title>[root] var.AWS_REGION</title>
<polygon fill="none" stroke="#000000" points="631.0557,-36 508.3575,-36 508.3575,0 637.0557,0 637.0557,-30 631.0557,-36"/>
<polyline fill="none" stroke="#000000" points="631.0557,-36 631.0557,-30 "/>
<polyline fill="none" stroke="#000000" points="637.0557,-30 631.0557,-30 "/>
<text text-anchor="middle" x="572.7066" y="-13.8" font-family="Times,serif" font-size="14.00" fill="#000000">var.AWS_REGION</text>
</g>
<!-- [root] provider[&quot;registry.terraform.io/hashicorp/aws&quot;]&#45;&gt;[root] var.AWS_REGION -->
<g id="edge17" class="edge">
<title>[root] provider["registry.terraform.io/hashicorp/aws"]-&gt;[root] var.AWS_REGION</title>
<path fill="none" stroke="#000000" d="M572.7066,-71.8314C572.7066,-64.131 572.7066,-54.9743 572.7066,-46.4166"/>
<polygon fill="#000000" stroke="#000000" points="576.2067,-46.4132 572.7066,-36.4133 569.2067,-46.4133 576.2067,-46.4132"/>
</g>
<!-- [root] output.get_api_endpoint (expand) -->
<g id="node12" class="node">
<title>[root] output.get_api_endpoint (expand)</title>
<ellipse fill="none" stroke="#000000" cx="916.7066" cy="-450" rx="166.127" ry="18"/>
<text text-anchor="middle" x="916.7066" y="-445.8" font-family="Times,serif" font-size="14.00" fill="#000000">[root] output.get_api_endpoint (expand)</text>
</g>
<!-- [root] output.get_api_endpoint (expand)&#45;&gt;[root] aws_apigatewayv2_stage.hello_world_api_v1 (expand) -->
<g id="edge12" class="edge">
<title>[root] output.get_api_endpoint (expand)-&gt;[root] aws_apigatewayv2_stage.hello_world_api_v1 (expand)</title>
<path fill="none" stroke="#000000" d="M916.7066,-431.8314C916.7066,-424.131 916.7066,-414.9743 916.7066,-406.4166"/>
<polygon fill="#000000" stroke="#000000" points="920.2067,-406.4132 916.7066,-396.4133 913.2067,-406.4133 920.2067,-406.4132"/>
</g>
<!-- [root] provider[&quot;registry.terraform.io/hashicorp/aws&quot;] (close) -->
<g id="node13" class="node">
<title>[root] provider["registry.terraform.io/hashicorp/aws"] (close)</title>
<ellipse fill="none" stroke="#000000" cx="484.7066" cy="-450" rx="247.2168" ry="18"/>
<text text-anchor="middle" x="484.7066" y="-445.8" font-family="Times,serif" font-size="14.00" fill="#000000">[root] provider["registry.terraform.io/hashicorp/aws"] (close)</text>
</g>
<!-- [root] provider[&quot;registry.terraform.io/hashicorp/aws&quot;] (close)&#45;&gt;[root] aws_apigatewayv2_route.hello_world_get_route (expand) -->
<g id="edge13" class="edge">
<title>[root] provider["registry.terraform.io/hashicorp/aws"] (close)-&gt;[root] aws_apigatewayv2_route.hello_world_get_route (expand)</title>
<path fill="none" stroke="#000000" d="M483.1925,-431.8314C482.5508,-424.131 481.7878,-414.9743 481.0747,-406.4166"/>
<polygon fill="#000000" stroke="#000000" points="484.5595,-406.088 480.241,-396.4133 477.5837,-406.6694 484.5595,-406.088"/>
</g>
<!-- [root] provider[&quot;registry.terraform.io/hashicorp/aws&quot;] (close)&#45;&gt;[root] aws_apigatewayv2_stage.hello_world_api_v1 (expand) -->
<g id="edge14" class="edge">
<title>[root] provider["registry.terraform.io/hashicorp/aws"] (close)-&gt;[root] aws_apigatewayv2_stage.hello_world_api_v1 (expand)</title>
<path fill="none" stroke="#000000" d="M583.8161,-433.4817C647.6716,-422.8392 731.031,-408.9459 798.3579,-397.7248"/>
<polygon fill="#000000" stroke="#000000" points="799.3065,-401.115 808.595,-396.0186 798.1556,-394.2103 799.3065,-401.115"/>
</g>
<!-- [root] provider[&quot;registry.terraform.io/hashicorp/aws&quot;] (close)&#45;&gt;[root] aws_iam_role_policy_attachment.lambda_write_policy (expand) -->
<g id="edge15" class="edge">
<title>[root] provider["registry.terraform.io/hashicorp/aws"] (close)-&gt;[root] aws_iam_role_policy_attachment.lambda_write_policy (expand)</title>
<path fill="none" stroke="#000000" d="M424.0626,-432.4337C393.7202,-422.9192 356.7298,-410.2091 324.7066,-396 280.695,-376.4715 232.8414,-348.8345 200.8425,-329.3512"/>
<polygon fill="#000000" stroke="#000000" points="202.6086,-326.3286 192.2539,-324.0857 198.9499,-332.2964 202.6086,-326.3286"/>
</g>
<!-- [root] provider[&quot;registry.terraform.io/hashicorp/aws&quot;] (close)&#45;&gt;[root] aws_lambda_permission.lambda_permission (expand) -->
<g id="edge16" class="edge">
<title>[root] provider["registry.terraform.io/hashicorp/aws"] (close)-&gt;[root] aws_lambda_permission.lambda_permission (expand)</title>
<path fill="none" stroke="#000000" d="M544.2834,-432.4151C571.9349,-423.2176 604.7876,-410.7821 632.7066,-396 667.7407,-377.4507 704.1158,-350.205 728.531,-330.5546"/>
<polygon fill="#000000" stroke="#000000" points="730.7861,-333.232 736.3332,-324.2053 726.3678,-327.8026 730.7861,-333.232"/>
</g>
<!-- [root] root -->
<g id="node14" class="node">
<title>[root] root</title>
<ellipse fill="none" stroke="#000000" cx="700.7066" cy="-522" rx="50.9823" ry="18"/>
<text text-anchor="middle" x="700.7066" y="-517.8" font-family="Times,serif" font-size="14.00" fill="#000000">[root] root</text>
</g>
<!-- [root] root&#45;&gt;[root] output.get_api_endpoint (expand) -->
<g id="edge18" class="edge">
<title>[root] root-&gt;[root] output.get_api_endpoint (expand)</title>
<path fill="none" stroke="#000000" d="M737.8383,-509.6228C770.0595,-498.8824 817.3482,-483.1195 855.2111,-470.4985"/>
<polygon fill="#000000" stroke="#000000" points="856.7383,-473.6788 865.1183,-467.1961 854.5246,-467.0381 856.7383,-473.6788"/>
</g>
<!-- [root] root&#45;&gt;[root] provider[&quot;registry.terraform.io/hashicorp/aws&quot;] (close) -->
<g id="edge19" class="edge">
<title>[root] root-&gt;[root] provider["registry.terraform.io/hashicorp/aws"] (close)</title>
<path fill="none" stroke="#000000" d="M663.5749,-509.6228C631.6859,-498.9931 585.0384,-483.4439 547.3761,-470.8898"/>
<polygon fill="#000000" stroke="#000000" points="548.1053,-467.4436 537.5116,-467.6017 545.8916,-474.0844 548.1053,-467.4436"/>
</g>
</g>
</svg>